<?xml version="1.0" encoding="iso-8859-1"?>
<!-- Generator: Adobe Illustrator 19.0.0, SVG Export Plug-In . SVG Version: 6.00 Build 0)  -->
<svg version="1.1" id="Layer_1" xmlns="http://www.w3.org/2000/svg" xmlns:xlink="http://www.w3.org/1999/xlink" x="0px" y="0px"
	 viewBox="0 0 512 512" style="enable-background:new 0 0 512 512;" xml:space="preserve">
<g transform="translate(1 1)">
	<path style="fill:#FD9808;" d="M502.467,255C502.467,118.467,391.533,7.533,255,7.533S7.533,118.467,7.533,255
		S118.467,502.467,255,502.467S502.467,391.533,502.467,255"/>
	<path style="fill:#FFDD09;" d="M476.867,259.267c0-133.973-104.96-243.2-234.667-243.2S7.533,125.293,7.533,259.267
		s104.96,243.2,234.667,243.2S476.867,393.24,476.867,259.267"/>
	<path style="fill:#54C9FD;" d="M268.653,92.867h-47.787c-9.387,0-17.067,7.68-17.067,17.067V280.6v128
		c0,9.387,7.68,17.067,17.067,17.067c9.387,0,17.067-7.68,17.067-17.067v-128h34.133c52.053,0,94.72-42.667,93.867-95.573
		C365.08,132.973,320.707,92.867,268.653,92.867"/>
	<path style="fill:#FFDD09;" d="M237.933,246.467V127h34.133c33.28,0,59.733,26.453,59.733,59.733s-26.453,59.733-59.733,59.733
		H237.933z"/>
	<path style="fill:#FFFFFF;" d="M255,7.533c26.453,0,51.2,4.267,75.093,11.947c-0.853,1.707-1.707,3.413-2.56,5.12
		c-19.627-5.12-39.253-8.533-60.587-8.533c-128.853,0-233.813,109.227-233.813,243.2c0,132.267,101.547,239.787,228.693,243.2
		c-2.56,0-4.267,0-6.827,0C118.467,502.467,7.533,391.533,7.533,255S118.467,7.533,255,7.533"/>
	<path d="M255,511C114.2,511-1,395.8-1,255S114.2-1,255-1s256,115.2,256,256S395.8,511,255,511z M255,16.067
		C123.587,16.067,16.067,123.587,16.067,255S123.587,493.933,255,493.933S493.933,386.413,493.933,255S386.413,16.067,255,16.067z"
		/>
	<path d="M220.867,434.2c-14.507,0-25.6-11.093-25.6-25.6V109.933c0-14.507,11.093-25.6,25.6-25.6h47.787
		c57.173,0,104.107,45.227,105.813,100.693c0.853,27.307-10.24,53.76-29.013,73.387c-19.627,19.627-45.227,30.72-73.387,30.72h-25.6
		V408.6C246.467,423.107,235.373,434.2,220.867,434.2z M220.867,101.4c-4.267,0-8.533,3.413-8.533,8.533V408.6
		c0,5.12,3.413,8.533,8.533,8.533c5.12,0,8.533-3.413,8.533-8.533v-128c0-5.12,3.413-8.533,8.533-8.533h34.133
		c23.04,0,44.373-9.387,60.587-25.6c16.213-16.213,24.747-38.4,24.747-61.44c-0.853-46.08-40.107-83.627-88.747-83.627
		C268.653,101.4,220.867,101.4,220.867,101.4z"/>
	<path d="M272.067,255h-34.133c-5.12,0-8.533-3.413-8.533-8.533V127c0-5.12,3.413-8.533,8.533-8.533h34.133
		c37.547,0,68.267,30.72,68.267,68.267S309.613,255,272.067,255z M246.467,237.933h25.6c28.16,0,51.2-23.04,51.2-51.2
		s-23.04-51.2-51.2-51.2h-25.6V237.933z"/>
</g>
<g>
</g>
<g>
</g>
<g>
</g>
<g>
</g>
<g>
</g>
<g>
</g>
<g>
</g>
<g>
</g>
<g>
</g>
<g>
</g>
<g>
</g>
<g>
</g>
<g>
</g>
<g>
</g>
<g>
</g>
</svg>
